# xmcd
# Copyright (C) 1995-1998 Ti Kan
#
# Track frame offsets:
#       150
#       23394
#       42829
#       67519
#       87163
#       104276
#       122368
#       140336
#       153992
#       171678
#       184279
#
# Disc length: 2694 seconds
#
# Revision: 0
# Processed by: cddbd v1.5.2PL0 Copyright (c) Steve Scherf et al.
# Submitted via: CD-Import v1.0
#
DISCID=810a840b
DTITLE=Hot Chocolate - Man To Man
DYEAR=1976
DGENRE=
TTITLE0=Heaven Is In The Back Seat Of My Cadillac
TTITLE1=Living On A Shoe String
TTITLE2=Sugar Daddy
TTITLE3=Man To Man
TTITLE4=You Could've Been A Lady
TTITLE5=Sey Appeal
TTITLE6=Harry
TTITLE7=Don't Stop It Now
TTITLE8=Seventeen Years Of Age
TTITLE9=Beautiful Lady
TTITLE10=Eyes Of A Growing Child
EXTD=
EXTT0=
EXTT1=
EXTT2=
EXTT3=
EXTT4=
EXTT5=
EXTT6=
EXTT7=
EXTT8=
EXTT9=
EXTT10=
PLAYORDER=
